<?xml version="1.0" encoding="utf-8"?>
<!-- Generator: Adobe Illustrator 16.0.0, SVG Export Plug-In . SVG Version: 6.00 Build 0)  -->
<!DOCTYPE svg PUBLIC "-//W3C//DTD SVG 1.1//EN" "http://www.w3.org/Graphics/SVG/1.1/DTD/svg11.dtd">
<svg version="1.1" id="Layer_1" xmlns="http://www.w3.org/2000/svg" xmlns:xlink="http://www.w3.org/1999/xlink" x="0px" y="0px"
	 width="687.05px" height="133.5px" viewBox="0 0 687.05 133.5" enable-background="new 0 0 687.05 133.5" xml:space="preserve">
<g>
	<path d="M149.959,7.069c-1.212-1.212-1.212-5.453,0-6.665c8.079,0.202,16.966,0.404,22.217,0.404s11.714-0.202,17.571-0.404
		c1.211,1.211,1.211,5.453,0,6.665c-11.108,0.606-14.764,5.312-17.369,12.32l-40.596,108.86c-1.01,3.029-2.424,5.251-4.646,5.251
		c-2.423,0-3.453-2.02-4.645-5.453L99.266,60.994c-1.191-3.454-2.02-5.655-2.827-5.655c-1.01,0-1.636,1.01-3.434,5.049
		l-30.093,67.659c-1.494,3.353-2.625,5.453-5.251,5.453c-2.322,0-3.353-2.242-4.443-5.453L15.248,18.783
		C11.492,7.978,9.997,7.675,0.909,7.069c-1.212-1.212-1.212-5.453,0-6.665c5.856,0.202,11.774,0.404,18.782,0.404
		c7.877,0,16.764-0.202,23.428-0.404c1.212,1.211,1.212,5.453,0,6.665c-7.068,0.404-12.44,1.394-10.098,8.482l29.527,89.329
		l0.868,0.202l26.154-59.236c1.515-3.413,1.818-4.988,1.818-7.069c0-1.817-0.626-3.837-1.414-6.261l-4.646-13.33
		c-1.817-5.19-6.261-11.512-16.965-12.118c-1.212-1.212-1.212-5.453,0-6.665c6.463,0.202,13.531,0.404,20.196,0.404
		c8.079,0,16.966-0.202,25.246-0.404c1.212,1.211,1.212,5.453,0,6.665c-6.867,0.606-14.037,1.252-10.502,12.118l27.77,85.229
		l0.646,0.263l31.567-87.714C166.379,8.361,158.24,7.675,149.959,7.069z"/>
	<path d="M221.467,126.426c0.9,0.899,0.9,4.05,0,4.949c-6.75-0.149-14.01-0.3-19.35-0.3c-5.444,0-12.749,0.15-19.499,0.3
		c-0.899-0.899-0.899-4.05,0-4.949c10.5-0.45,13.05-1.2,13.05-13.649V52.629c0-12.45-2.55-13.2-13.05-13.649
		c-0.899-0.9-0.899-4.05,0-4.95c7.05,0.15,14.324,0.3,19.35,0.3c5.774,0,12.899-0.15,19.499-0.3c0.9,0.9,0.9,4.05,0,4.95
		c-10.499,0.45-13.05,1.2-13.05,13.649v60.148C208.417,125.226,210.968,125.976,221.467,126.426z"/>
	<path d="M266.016,126.426c0.9,0.899,0.9,4.05,0,4.949c-6.75-0.149-13.649-0.3-19.35-0.3c-5.85,0-12.749,0.15-19.499,0.3
		c-0.899-0.899-0.899-4.05,0-4.949c10.5-0.45,13.05-1.2,13.05-13.649V52.629c0-12.45-2.55-13.2-13.05-13.649
		c-0.899-0.9-0.899-4.05,0-4.95c6.75,0.15,13.575,0.3,19.35,0.3c5.475,0,12.6-0.15,19.499-0.3c0.9,0.9,0.9,4.05,0,4.95
		c-10.499,0.45-13.05,1.2-13.05,13.649v26.354c5.266-0.435,8.655-2.4,11.85-5.805l24.749-26.399c6.315-6.735,1.215-7.29-4.199-7.8
		c-0.9-0.9-0.9-4.05,0-4.95c5.55,0.15,11.399,0.3,16.949,0.3c4.829,0,9.6-0.15,14.249-0.3c0.9,0.9,0.9,4.05,0,4.95
		c-6,0.45-11.999,1.05-18.899,8.399l-22.049,22.649c-5.1,5.25-5.25,6.3-5.25,7.35c0,1.2,0.795,2.385,1.95,3.75l32.849,38.999
		c4.59,5.444,8.864,5.909,13.199,6.3c0.9,0.899,0.9,4.05,0,4.949c-4.949-0.149-10.05-0.3-15.149-0.3c-3.165,0-5.1,0.15-8.1,0.3
		c-0.6,0-0.689-0.45-0.75-0.899c-0.3-2.4-2.354-6.51-5.399-10.35l-23.549-29.699c-3.045-3.84-7.38-5.535-12.45-5.685v28.034
		C252.966,125.226,255.517,125.976,266.016,126.426z"/>
	<path d="M375.665,66.729c0.899-0.9,4.05-0.9,4.949,0c-0.149,3.6-0.3,8.699-0.3,12.899c0,5.145,0.15,9.299,0.3,13.199
		c-0.899,0.9-4.05,0.9-4.949,0c-0.45-6.75-0.9-10.2-13.649-10.2h-13.649v33.148c0,7.05,2.1,9.45,8.399,9.45h17.399
		c11.399,0,16.649-8.85,19.649-19.649c1.965-0.479,3.689-0.135,5.249,0.75c-1.199,7.649-3.449,17.55-5.549,25.049
		c0,0-12-0.3-19.199-0.3h-32.249c-4.95,0-13.949,0.15-19.499,0.3c-0.9-0.899-0.9-4.05,0-4.949c10.499-0.45,13.049-1.2,13.049-13.649
		V52.629c0-12.45-2.55-13.2-13.049-13.649c-0.9-0.9-0.9-4.05,0-4.95c5.999,0.15,14.774,0.3,19.349,0.3h38.249
		c3.6,0,4.8-0.15,7.35-0.6c0.45,0,0.6,0.15,0.6,0.45c0.3,1.2,2.55,15.599,3.3,21.749c-1.47,0.705-3.09,1.02-4.949,0.75
		c-3.3-10.35-5.7-16.349-16.949-16.349h-11.25c-8.1,0-9.899,3-9.899,9.6v26.999h13.649
		C374.765,76.928,375.215,74.978,375.665,66.729z"/>
	<path d="M437.014,126.426c0.9,0.899,0.9,4.05,0,4.949c-5.55-0.149-13.05-0.3-19.199-0.3c-4.545,0-9.449,0.15-13.35,0.3
		c-0.899-0.899-0.899-4.05,0-4.949c6.524-0.45,11.1-1.351,15-10.65l34.048-80.396c1.95,0,6-1.65,8.25-3l30.898,85.796
		c2.61,7.229,7.68,7.725,13.5,8.25c0.899,0.899,0.899,4.05,0,4.949c-5.25-0.149-10.95-0.3-17.1-0.3c-5.85,0-14.1,0.15-19.649,0.3
		c-0.899-0.899-0.899-4.05,0-4.949c7.14-0.511,12.87-0.976,11.1-6.15l-8.699-25.349h-31.649c-3.6,0-4.499,0.6-5.249,2.55
		l-8.25,21.749C424.324,125.391,431.374,126.036,437.014,126.426z M469.412,88.627l-14.1-40.798h-0.899l-15.329,38.803
		c-0.57,1.545,0.479,1.995,3.779,1.995H469.412z"/>
	<path d="M569.536,55.779c-1.35,1.05-3.3,1.17-4.874,0.9c-3-9.899-7.65-19.199-22.215-19.199c-8.834,0-16.424,8.4-16.424,16.799
		c0,12.614,14.984,18.284,23.864,21.614c12.359,4.635,24.374,11.625,24.374,27.584c0,9.539-5.476,18.779-14.1,24.179
		c-5.22,3.255-11.685,4.92-18.51,4.92c-13.304,0-17.489-3.45-26.938-3.45c-1.8-7.35-2.4-11.249-3-22.799
		c1.44-0.765,3.03-1.05,4.875-0.45c3.3,14.925,12.314,21.3,26.324,21.3c11.969,0,18.749-6.3,18.749-18.449
		c0-14.67-11.055-18.885-20.175-22.35c-13.199-5.025-26.174-12.239-26.174-28.049c0-15.899,13.35-25.949,28.56-25.949
		c14.639,0,14.309,2.85,22.979,4.05C568.411,44.379,569.012,48.579,569.536,55.779z"/>
	<path d="M655.543,44.433c1.212-1.212,5.453-1.212,6.665,0c-0.202,4.847-0.404,11.714-0.404,17.369
		c0,6.927,0.202,12.521,0.404,17.773c-1.212,1.211-5.453,1.211-6.665,0c-0.605-9.089-1.212-13.734-18.379-13.734h-18.379v44.634
		c0,9.492,2.828,12.724,11.311,12.724h23.428c15.35,0,22.418-11.916,26.458-26.457c2.646-0.646,4.968-0.182,7.068,1.01
		c-1.615,10.3-4.646,23.63-7.473,33.729c0,0-16.157-0.404-25.852-0.404h-43.423c-6.665,0-18.782,0.202-26.255,0.404
		c-1.212-1.212-1.212-5.453,0-6.665c14.137-0.606,17.57-1.616,17.57-18.379V25.448c0-16.763-3.434-17.773-17.57-18.379
		c-1.212-1.212-1.212-5.453,0-6.665c8.078,0.202,19.894,0.404,26.053,0.404h51.502c4.847,0,6.463-0.202,9.896-0.808
		c0.606,0,0.809,0.202,0.809,0.606c0.403,1.616,3.433,21.004,4.443,29.285c-1.979,0.949-4.161,1.374-6.665,1.01
		c-4.443-13.936-7.675-22.014-22.822-22.014h-15.147c-10.906,0-13.33,4.039-13.33,12.926v36.354h18.379
		C654.331,58.166,654.938,55.541,655.543,44.433z"/>
</g>
</svg>
