<?xml version="1.0" encoding="utf-8"?>
<!-- Generator: Adobe Illustrator 16.0.0, SVG Export Plug-In . SVG Version: 6.00 Build 0)  -->
<!DOCTYPE svg PUBLIC "-//W3C//DTD SVG 1.1//EN" "http://www.w3.org/Graphics/SVG/1.1/DTD/svg11.dtd">
<svg version="1.1" id="Layer_1" xmlns="http://www.w3.org/2000/svg" xmlns:xlink="http://www.w3.org/1999/xlink" x="0px" y="0px"
	 width="200.05px" height="200.5px" viewBox="0 0 200.05 200.5" enable-background="new 0 0 200.05 200.5" xml:space="preserve">
<g>
	<path d="M81.996,68.271c-0.578-0.578-0.578-2.601,0-3.179c3.853,0.096,8.091,0.192,10.596,0.192s5.587-0.096,8.381-0.192
		c0.578,0.578,0.578,2.601,0,3.179c-5.298,0.289-7.042,2.533-8.284,5.875l-19.362,51.92c-0.481,1.445-1.156,2.504-2.216,2.504
		c-1.155,0-1.647-0.963-2.215-2.601l-11.077-31.98c-0.568-1.647-0.963-2.697-1.349-2.697c-0.482,0-0.78,0.482-1.638,2.408
		l-14.353,32.269c-0.712,1.599-1.252,2.601-2.504,2.601c-1.107,0-1.599-1.069-2.119-2.601L17.747,73.857
		c-1.791-5.153-2.504-5.298-6.838-5.586c-0.578-0.578-0.578-2.601,0-3.179c2.793,0.096,5.615,0.192,8.958,0.192
		c3.757,0,7.995-0.096,11.174-0.192c0.578,0.578,0.578,2.601,0,3.179c-3.371,0.192-5.933,0.665-4.816,4.045l14.083,42.605
		l0.415,0.096l12.474-28.252c0.723-1.627,0.867-2.379,0.867-3.371c0-0.867-0.298-1.83-0.674-2.986l-2.215-6.358
		c-0.867-2.475-2.986-5.491-8.092-5.779c-0.578-0.578-0.578-2.601,0-3.179c3.083,0.096,6.454,0.192,9.633,0.192
		c3.853,0,8.092-0.096,12.041-0.192c0.578,0.578,0.578,2.601,0,3.179c-3.275,0.289-6.695,0.597-5.009,5.779l13.244,40.65
		l0.309,0.125L88.354,72.99C89.827,68.887,85.945,68.559,81.996,68.271z"/>
	<path d="M167.647,86.091c0.578-0.578,2.601-0.578,3.179,0c-0.097,2.312-0.193,5.586-0.193,8.284c0,3.304,0.097,5.972,0.193,8.477
		c-0.579,0.578-2.601,0.578-3.179,0c-0.289-4.335-0.579-6.55-8.766-6.55h-8.765v21.288c0,4.527,1.349,6.068,5.395,6.068h11.173
		c7.321,0,10.693-5.683,12.62-12.618c1.262-0.308,2.37-0.086,3.371,0.481c-0.77,4.913-2.215,11.27-3.564,16.087
		c0,0-7.706-0.193-12.33-0.193h-20.71c-3.179,0-8.958,0.097-12.522,0.193c-0.578-0.578-0.578-2.601,0-3.179
		c6.742-0.29,8.38-0.771,8.38-8.766V77.036c0-7.995-1.638-8.477-8.38-8.765c-0.578-0.578-0.578-2.601,0-3.179
		c3.853,0.096,9.488,0.192,12.426,0.192h24.564c2.311,0,3.082-0.096,4.719-0.386c0.29,0,0.386,0.097,0.386,0.29
		c0.192,0.771,1.637,10.018,2.119,13.967c-0.944,0.453-1.984,0.655-3.179,0.481c-2.119-6.646-3.659-10.5-10.885-10.5h-7.224
		c-5.202,0-6.357,1.926-6.357,6.165v17.339h8.765C167.068,92.641,167.358,91.389,167.647,86.091z"/>
	<g>
		<path d="M94.94,144.824l-5.61-0.199l35.844-95.315l5.61-0.389L94.94,144.824z"/>
	</g>
</g>
</svg>
